<?xml version="1.0" encoding="UTF-8" standalone="no"?>
<!-- Created with Inkscape (http://www.inkscape.org/) -->

<svg
        width="512"
        height="512"
        viewBox="0 0 135.46666 135.46667"
        version="1.1"
        id="svg5"
        sodipodi:docname="copy.svg"
        inkscape:version="1.4.3 (0d15f75, 2025-12-25)"
        xmlns:inkscape="http://www.inkscape.org/namespaces/inkscape"
        xmlns:sodipodi="http://sodipodi.sourceforge.net/DTD/sodipodi-0.dtd"
        xmlns="http://www.w3.org/2000/svg"
>
    <sodipodi:namedview
            id="namedview1"
            pagecolor="#505050"
            bordercolor="#eeeeee"
            borderopacity="1"
            inkscape:showpageshadow="0"
            inkscape:pageopacity="0"
            inkscape:pagecheckerboard="0"
            inkscape:deskcolor="#d1d1d1"
            inkscape:zoom="2.2792969"
            inkscape:cx="256"
            inkscape:cy="256"
            inkscape:window-width="2560"
            inkscape:window-height="1369"
            inkscape:window-x="2552"
            inkscape:window-y="146"
            inkscape:window-maximized="1"
            inkscape:current-layer="svg5"/>
    <defs
            id="defs2"/>
    <g
            id="layer1"
            style="stroke:#000000;stroke-opacity:1">
        <path
                id="rect1"
                style="fill:none;stroke:#000000;stroke-width:7.60475;stroke-linecap:round;stroke-linejoin:round;stroke-opacity:1"
                d="m 15.171547,27.946962 h 68.769508 c 1.317584,0 2.378311,1.060727 2.378311,2.378312 v 92.105516 c 0,1.31758 -1.060727,2.37831 -2.378311,2.37831 H 15.171547 c -1.317584,0 -2.378311,-1.06073 -2.378311,-2.37831 V 30.325274 c 0,-1.317585 1.060727,-2.378312 2.378311,-2.378312 z"/>
        <path
                id="rect1-8"
                style="fill:none;stroke:#000000;stroke-width:7.60475;stroke-linecap:round;stroke-linejoin:round;stroke-opacity:1"
                d="m 43.943944,10.368853 h 68.769506 c 1.31759,0 2.37831,1.060727 2.37831,2.378311 v 92.105516 c 0,1.31758 -1.06072,2.37831 -2.37831,2.37831 l -26.091998,0.24053 C 86.894477,109.0368 85.702943,28.617766 85.702943,28.617766 L 43.730405,27.900575 c -1.317391,-0.02251 -1.104046,-17.53172 0.213539,-17.53172 z"/>
    </g>
</svg>
