<?xml version="1.0" encoding="UTF-8" standalone="no"?>
<svg
   xmlns:dc="http://purl.org/dc/elements/1.1/"
   xmlns:cc="http://creativecommons.org/ns#"
   xmlns:rdf="http://www.w3.org/1999/02/22-rdf-syntax-ns#"
   xmlns:svg="http://www.w3.org/2000/svg"
   xmlns="http://www.w3.org/2000/svg"
   xmlns:sodipodi="http://sodipodi.sourceforge.net/DTD/sodipodi-0.dtd"
   xmlns:inkscape="http://www.inkscape.org/namespaces/inkscape"
   version="1.1"
   id="svg2"
   xml:space="preserve"
   width="800"
   height="800"
   viewBox="0 0 800 800"
   sodipodi:docname="school-building.svg"
   inkscape:version="1.0.1 (3bc2e813f5, 2020-09-07, custom)"><metadata
     id="metadata8"><rdf:RDF><cc:Work
         rdf:about=""><dc:format>image/svg+xml</dc:format><dc:type
           rdf:resource="http://purl.org/dc/dcmitype/StillImage" /><dc:title></dc:title></cc:Work></rdf:RDF></metadata><defs
     id="defs6"><clipPath
       clipPathUnits="userSpaceOnUse"
       id="clipPath18"><path
         d="M 0,600 H 600 V 0 H 0 Z"
         id="path16" /></clipPath></defs><sodipodi:namedview
     pagecolor="#ffffff"
     bordercolor="#666666"
     borderopacity="1"
     objecttolerance="10"
     gridtolerance="10"
     guidetolerance="10"
     inkscape:pageopacity="0"
     inkscape:pageshadow="2"
     inkscape:window-width="2560"
     inkscape:window-height="1389"
     id="namedview4"
     showgrid="false"
     inkscape:zoom="1.26"
     inkscape:cx="400"
     inkscape:cy="400"
     inkscape:window-x="0"
     inkscape:window-y="27"
     inkscape:window-maximized="1"
     inkscape:current-layer="g14" /><g
     id="g10"
     inkscape:groupmode="layer"
     inkscape:label="school-building-3-publicdomainvectors.org"
     transform="matrix(1.3333333,0,0,-1.3333333,0,800)"><g
       id="g14"
       clip-path="url(#clipPath18)"><path
         d="m 299.869,514.229 c 160.602,0 290.797,-130.194 290.797,-290.797 0,-29.376 -4.372,-57.728 -12.474,-84.457 H 21.545 c -8.101,26.729 -12.473,55.081 -12.473,84.457 0,160.603 130.194,290.797 290.797,290.797"
         style="fill:#c1dff5;fill-opacity:1;fill-rule:evenodd;stroke:none"
         id="path70" /><path
         d="m 299.869,130.21 c 165.124,0 299.8,3.936 299.8,8.765 0,4.829 -134.676,8.765 -299.8,8.765 -165.124,0 -299.8,-3.936 -299.8,-8.765 0,-4.829 134.676,-8.765 299.8,-8.765"
         style="fill:#47bc53;fill-opacity:1;fill-rule:evenodd;stroke:none"
         id="path72" /><path
         d="M 56.633,138.975 H 543.105 V 330.088 H 56.633 Z"
         style="fill:#b93621;fill-opacity:1;fill-rule:evenodd;stroke:none"
         id="path74" /><path
         d="m 56.633,273.703 h 486.472 v 15.524 H 56.633 Z"
         style="fill:#a32f1f;fill-opacity:1;fill-rule:evenodd;stroke:none"
         id="path76" /><path
         d="m 428.283,138.975 h 21.28 v 126.882 h 2.831 v 23.371 h -2.831 -5.842 -15.438 z"
         style="fill:#a32f1f;fill-opacity:1;fill-rule:evenodd;stroke:none"
         id="path78" /><path
         d="m 40.563,289.228 h 518.609 v 78.157 H 40.563 Z"
         style="fill:#5b2113;fill-opacity:1;fill-rule:evenodd;stroke:none"
         id="path80" /><path
         d="m 428.283,289.228 h 28.038 v 78.157 h -28.038 z"
         style="fill:#3c1b14;fill-opacity:1;fill-rule:evenodd;stroke:none"
         id="path82" /><path
         d="m 171.454,394.975 128.415,72.313 128.414,-72.313 v -256 H 171.454 Z"
         style="fill:#d64520;fill-opacity:1;fill-rule:evenodd;stroke:none"
         id="path84" /><path
         d="m 171.454,394.975 128.415,72.313 128.414,-72.313 v -15.12 L 299.869,452.169 171.454,379.855 Z"
         style="fill:#be3721;fill-opacity:1;fill-rule:evenodd;stroke:none"
         id="path86" /><path
         d="m 165.271,265.858 h 269.197 v 23.883 H 165.271 Z"
         style="fill:#fbc8b1;fill-opacity:1;fill-rule:evenodd;stroke:none"
         id="path88" /><path
         d="m 244.904,276.989 115.042,12.752 V 271.693 H 250.017 Z"
         style="fill:#f0a889;fill-opacity:1;fill-rule:evenodd;stroke:none"
         id="path90" /><path
         d="m 154.483,398.898 145.386,81.87 145.386,-81.87 -8.425,-15.03 -136.961,77.126 -136.961,-77.126 z"
         style="fill:#5b2113;fill-opacity:1;fill-rule:evenodd;stroke:none"
         id="path92" /><path
         d="m 211.832,138.975 h 176.075 v 5.843 H 211.832 Z"
         style="fill:#fbc8b1;fill-opacity:1;fill-rule:evenodd;stroke:none"
         id="path94" /><path
         d="M 225.318,144.818 H 374.42 v 5.843 H 225.318 Z"
         style="fill:#fccfbd;fill-opacity:1;fill-rule:evenodd;stroke:none"
         id="path96" /><path
         d="m 237.025,150.66 h 125.686 v 5.844 H 237.025 Z"
         style="fill:#fde7dd;fill-opacity:1;fill-rule:evenodd;stroke:none"
         id="path98" /><path
         d="m 252.025,156.504 h 95.686 v 91.869 h -95.686 z"
         style="fill:#ab3420;fill-opacity:1;fill-rule:evenodd;stroke:none"
         id="path100" /><path
         d="m 301.349,242.33 h 40.321 v -79.783 h -40.321 z m -43.281,0 h 40.322 v -79.783 h -40.322 z"
         style="fill:#79d2ef;fill-opacity:1;fill-rule:evenodd;stroke:none"
         id="path102" /><path
         d="m 311.393,169.76 h 25.896 v 65.357 h -25.896 z m -43.282,0 h 25.896 v 65.357 h -25.896 z"
         style="fill:#90dbf6;fill-opacity:1;fill-rule:evenodd;stroke:none"
         id="path104" /><path
         d="m 317.602,242.33 h 13.515 v -79.783 h -13.515 z m -53.321,0 h 17.713 v -79.783 h -17.713 z"
         style="fill:#90dbf6;fill-opacity:1;fill-rule:evenodd;stroke:none"
         id="path106" /><path
         d="m 331.116,169.76 h -13.515 v 65.357 h 13.515 z m -63.005,0 h 13.883 v 65.357 h -13.883 z"
         style="fill:#aae4f8;fill-opacity:1;fill-rule:evenodd;stroke:none"
         id="path108" /><path
         d="m 363.416,182.996 h 48.232 v 65.377 h -48.232 z"
         style="fill:#fce7dc;fill-opacity:1;fill-rule:evenodd;stroke:none"
         id="path110" /><path
         d="m 366.887,186.466 h 41.291 v 58.438 h -41.291 z"
         style="fill:#79d2ef;fill-opacity:1;fill-rule:evenodd;stroke:none"
         id="path112" /><path
         d="m 372.639,192.217 h 29.787 v 46.935 h -29.787 z"
         style="fill:#90dbf6;fill-opacity:1;fill-rule:evenodd;stroke:none"
         id="path114" /><path
         d="m 364.604,230.841 h 45.855 v 1.459 h -45.855 z"
         style="fill:#fce7dc;fill-opacity:1;fill-rule:evenodd;stroke:none"
         id="path116" /><path
         d="m 366.887,202.352 h 41.291 v 21.183 h -41.291 z"
         style="fill:#90dbf6;fill-opacity:1;fill-rule:evenodd;stroke:none"
         id="path118" /><path
         d="m 402.426,202.352 h -29.787 v 21.183 h 29.787 z"
         style="fill:#aae4f8;fill-opacity:1;fill-rule:evenodd;stroke:none"
         id="path120" /><path
         d="m 386.802,247.001 h 1.46 v -62.088 h -1.46 z"
         style="fill:#fce7dc;fill-opacity:1;fill-rule:evenodd;stroke:none"
         id="path122" /><path
         d="m 187.711,182.996 h 48.23 v 65.377 h -48.23 z"
         style="fill:#fce7dc;fill-opacity:1;fill-rule:evenodd;stroke:none"
         id="path124" /><path
         d="m 191.18,186.466 h 41.293 v 58.438 H 191.18 Z"
         style="fill:#79d2ef;fill-opacity:1;fill-rule:evenodd;stroke:none"
         id="path126" /><path
         d="m 196.933,192.217 h 29.788 v 46.935 h -29.788 z"
         style="fill:#90dbf6;fill-opacity:1;fill-rule:evenodd;stroke:none"
         id="path128" /><path
         d="m 188.898,230.841 h 45.855 v 1.459 h -45.855 z"
         style="fill:#fce7dc;fill-opacity:1;fill-rule:evenodd;stroke:none"
         id="path130" /><path
         d="m 191.18,202.352 h 41.293 v 21.183 H 191.18 Z"
         style="fill:#90dbf6;fill-opacity:1;fill-rule:evenodd;stroke:none"
         id="path132" /><path
         d="m 226.721,202.352 h -29.788 v 21.183 h 29.788 z"
         style="fill:#aae4f8;fill-opacity:1;fill-rule:evenodd;stroke:none"
         id="path134" /><path
         d="m 211.096,247.001 h 1.461 v -62.088 h -1.461 z"
         style="fill:#fce7dc;fill-opacity:1;fill-rule:evenodd;stroke:none"
         id="path136" /><path
         d="m 235.942,318.399 h 127.474 v 65.376 H 235.942 Z"
         style="fill:#fce7dc;fill-opacity:1;fill-rule:evenodd;stroke:none"
         id="path138" /><path
         d="m 239.596,322.052 h 120.167 v 58.07 H 239.596 Z"
         style="fill:#79d2ef;fill-opacity:1;fill-rule:evenodd;stroke:none"
         id="path140" /><path
         d="m 250.027,330.087 h 99.306 v 42 h -99.306 z"
         style="fill:#90dbf6;fill-opacity:1;fill-rule:evenodd;stroke:none"
         id="path142" /><path
         d="m 283.024,380.122 h 27.208 v -58.07 h -27.208 z m 51.496,0 h 8.948 v -58.07 h -8.948 z m -79.435,0 h 9.678 v -58.07 h -9.678 z"
         style="fill:#90dbf6;fill-opacity:1;fill-rule:evenodd;stroke:none"
         id="path144" /><path
         d="m 334.52,372.087 h 8.948 v -42 h -8.948 z m -51.496,0 h 27.208 v -42 h -27.208 z m -27.939,0 h 9.678 v -42 h -9.678 z"
         style="fill:#aae4f8;fill-opacity:1;fill-rule:evenodd;stroke:none"
         id="path146" /><path
         d="m 326.797,381.584 h 1.461 v -61.267 h -1.461 z m -55.695,0 h 1.461 v -61.267 h -1.461 z"
         style="fill:#fce7dc;fill-opacity:1;fill-rule:evenodd;stroke:none"
         id="path148" /><path
         d="m 237.646,364.097 h 123.899 v -1.461 H 237.646 Z"
         style="fill:#fce7dc;fill-opacity:1;fill-rule:evenodd;stroke:none"
         id="path150" /><path
         d="m 89.833,182.996 h 48.23 v 65.377 h -48.23 z"
         style="fill:#fce7dc;fill-opacity:1;fill-rule:evenodd;stroke:none"
         id="path152" /><path
         d="m 93.302,186.466 h 41.293 v 58.438 H 93.302 Z"
         style="fill:#79d2ef;fill-opacity:1;fill-rule:evenodd;stroke:none"
         id="path154" /><path
         d="m 99.054,192.217 h 29.788 v 46.935 H 99.054 Z"
         style="fill:#90dbf6;fill-opacity:1;fill-rule:evenodd;stroke:none"
         id="path156" /><path
         d="m 91.021,230.841 h 45.855 V 232.3 H 91.021 Z"
         style="fill:#fce7dc;fill-opacity:1;fill-rule:evenodd;stroke:none"
         id="path158" /><path
         d="m 93.302,202.352 h 41.293 v 21.183 H 93.302 Z"
         style="fill:#90dbf6;fill-opacity:1;fill-rule:evenodd;stroke:none"
         id="path160" /><path
         d="M 128.842,202.352 H 99.054 v 21.183 h 29.788 z"
         style="fill:#aae4f8;fill-opacity:1;fill-rule:evenodd;stroke:none"
         id="path162" /><path
         d="m 113.218,247.001 h 1.46 v -62.088 h -1.46 z"
         style="fill:#fce7dc;fill-opacity:1;fill-rule:evenodd;stroke:none"
         id="path164" /><path
         d="m 460.164,182.996 h 48.231 v 65.377 h -48.231 z"
         style="fill:#fce7dc;fill-opacity:1;fill-rule:evenodd;stroke:none"
         id="path166" /><path
         d="m 463.634,186.466 h 41.291 v 58.438 h -41.291 z"
         style="fill:#79d2ef;fill-opacity:1;fill-rule:evenodd;stroke:none"
         id="path168" /><path
         d="m 469.386,192.217 h 29.788 v 46.935 h -29.788 z"
         style="fill:#90dbf6;fill-opacity:1;fill-rule:evenodd;stroke:none"
         id="path170" /><path
         d="m 461.352,230.841 h 45.855 v 1.459 h -45.855 z"
         style="fill:#fce7dc;fill-opacity:1;fill-rule:evenodd;stroke:none"
         id="path172" /><path
         d="m 463.634,202.352 h 41.291 v 21.183 h -41.291 z"
         style="fill:#90dbf6;fill-opacity:1;fill-rule:evenodd;stroke:none"
         id="path174" /><path
         d="m 499.174,202.352 h -29.788 v 21.183 h 29.788 z"
         style="fill:#aae4f8;fill-opacity:1;fill-rule:evenodd;stroke:none"
         id="path176" /><path
         d="m 483.548,247.001 h 1.462 v -62.088 h -1.462 z"
         style="fill:#fce7dc;fill-opacity:1;fill-rule:evenodd;stroke:none"
         id="path178" /><path
         d="m 299.68,399.613 c 9.605,0 17.439,7.835 17.439,17.44 0,9.605 -7.834,17.439 -17.439,17.439 -9.604,0 -17.439,-7.834 -17.439,-17.439 0,-9.605 7.835,-17.44 17.439,-17.44"
         style="fill:#fce7dc;fill-opacity:1;fill-rule:evenodd;stroke:none"
         id="path180" /><path
         d="m 299.679,401.638 c 8.491,0 15.416,6.924 15.416,15.415 0,8.49 -6.925,15.415 -15.416,15.415 -8.49,0 -15.414,-6.925 -15.414,-15.415 0,-8.491 6.924,-15.415 15.414,-15.415"
         style="fill:#79d2ef;fill-opacity:1;fill-rule:evenodd;stroke:none"
         id="path182" /><path
         d="m 299.679,432.467 c 2.352,0 4.58,-0.527 6.574,-1.468 v -27.893 c -1.994,-0.942 -4.222,-1.469 -6.574,-1.469 -2.351,0 -4.578,0.527 -6.573,1.469 v 27.893 c 1.995,0.941 4.222,1.468 6.573,1.468"
         style="fill:#90dbf6;fill-opacity:1;fill-rule:evenodd;stroke:none"
         id="path184" /><path
         d="m 299.679,406.452 c 5.84,0 10.6,4.762 10.6,10.601 0,5.839 -4.76,10.6 -10.6,10.6 -5.838,0 -10.601,-4.761 -10.601,-10.6 0,-5.839 4.763,-10.601 10.601,-10.601"
         style="fill:#90dbf6;fill-opacity:1;fill-rule:evenodd;stroke:none"
         id="path186" /><path
         d="m 299.679,427.653 c 2.484,0 4.766,-0.855 6.574,-2.285 v -16.631 c -1.808,-1.43 -4.09,-2.285 -6.574,-2.285 -2.482,0 -4.766,0.855 -6.573,2.285 v 16.631 c 1.807,1.43 4.091,2.285 6.573,2.285"
         style="fill:#aae4f8;fill-opacity:1;fill-rule:evenodd;stroke:none"
         id="path188" /><path
         d="m 244.904,276.989 h 109.93 v 29.218 h -109.93 z"
         style="fill:#fce7dc;fill-opacity:1;fill-rule:evenodd;stroke:none"
         id="path190" /><path
         d="m 335.235,283.671 h 9.788 v 2.997 h -6.235 v 12.76 h -3.553 z m -10.125,2.779 c -2.151,0 -3.504,2.006 -3.504,5.172 0,3.142 1.353,5.026 3.504,5.026 2.151,0 3.504,-1.884 3.504,-5.026 0,-3.166 -1.353,-5.172 -3.504,-5.172 m 0,-3.069 c 4.253,0 7.153,3.094 7.153,8.241 0,5.123 -2.9,8.095 -7.153,8.095 -4.253,0 -7.153,-2.947 -7.153,-8.095 0,-5.147 2.9,-8.241 7.153,-8.241 m -16.53,3.069 c -2.15,0 -3.505,2.006 -3.505,5.172 0,3.142 1.355,5.026 3.505,5.026 2.151,0 3.504,-1.884 3.504,-5.026 0,-3.166 -1.353,-5.172 -3.504,-5.172 m 0,-3.069 c 4.254,0 7.153,3.094 7.153,8.241 0,5.123 -2.899,8.095 -7.153,8.095 -4.253,0 -7.152,-2.947 -7.152,-8.095 0,-5.147 2.899,-8.241 7.152,-8.241 m -22.693,0.29 h 3.553 v 6.573 h 5.438 v -6.573 h 3.577 v 15.757 h -3.577 v -6.067 h -5.438 v 6.067 h -3.553 z m -7.492,-0.29 c 2.055,0 3.795,0.798 5.099,2.32 l -1.884,2.224 c -0.773,-0.823 -1.788,-1.475 -3.07,-1.475 -2.319,0 -3.817,1.885 -3.817,5.123 0,3.166 1.715,5.075 3.866,5.075 1.136,0 1.982,-0.532 2.78,-1.256 l 1.885,2.272 c -1.064,1.087 -2.707,2.053 -4.738,2.053 -3.987,0 -7.443,-3.044 -7.443,-8.265 0,-5.292 3.336,-8.071 7.322,-8.071 m -15.2,0 c 3.77,0 5.945,2.271 5.945,4.882 0,2.222 -1.208,3.503 -3.117,4.276 l -2.03,0.822 c -1.354,0.557 -2.393,0.895 -2.393,1.862 0,0.893 0.774,1.425 2.006,1.425 1.256,0 2.223,-0.459 3.263,-1.256 l 1.812,2.248 c -1.353,1.353 -3.263,2.077 -5.075,2.077 -3.287,0 -5.607,-2.077 -5.607,-4.688 0,-2.296 1.547,-3.648 3.166,-4.302 l 2.054,-0.87 c 1.378,-0.58 2.272,-0.893 2.272,-1.884 0,-0.943 -0.725,-1.523 -2.199,-1.523 -1.306,0 -2.755,0.676 -3.891,1.644 l -2.03,-2.442 c 1.595,-1.499 3.77,-2.271 5.824,-2.271"
         style="fill:#ab3420;fill-opacity:1;fill-rule:evenodd;stroke:none"
         id="path192" /></g></g></svg>
